# xmcd CD database file
#
# Track frame offsets:
#	150
#	11989
#	28077
#	44641
#	61276
#	77300
#	89458
#	104399
#	117653
#	129244
#	139983
#
# Disc length: 1989 seconds
#
# Revision: 0
# Processed by: cddbd v1.5.2PL0 Copyright (c) Steve Scherf et al.
# Submitted via: CDex 1.77
#
DISCID=9707c30b
DTITLE=Lizzy Long and Little Roy Lewis - Breaking Like Dawn
DYEAR=2009
DGENRE=Country
TTITLE0=Do You Know My Heart
TTITLE1=Santa Barbara Moon
TTITLE2=Breaking Like Dawn
TTITLE3=Leave A Light On
TTITLE4=Preaching Up A Storm
TTITLE5=Eiffel Tower
TTITLE6=When We Fly (Duet with Ty Herndon)
TTITLE7=Born Again
TTITLE8=When The Sun Goes Down Tomorrow
TTITLE9=Walking The Streets Of Gold
TTITLE10=The Bells of Saint Mary's
EXTD=YEAR: 2009
EXTT0=
EXTT1=
EXTT2=
EXTT3=
EXTT4=
EXTT5=
EXTT6=
EXTT7=
EXTT8=
EXTT9=
EXTT10=
PLAYORDER=
